STARTFONT 2.1
FONT -sni-97480i5-Medium-OT-Normal--24-240-75-75-C-120-iso8859-5
SIZE 24 75 75
FONTBOUNDINGBOX 12 24 0 -6

STARTPROPERTIES 23
FONTNAME_REGISTRY ""
FAMILY_NAME "97480i5"
FOUNDRY "sni"
WEIGHT_NAME "Medium"
SLANT "OT"
SETWIDTH_NAME "Normal"
ADD_STYLE_NAME ""
PIXEL_SIZE 24
POINT_SIZE 240
RESOLUTION_X 75
RESOLUTION_Y 75
SPACING "C"
AVERAGE_WIDTH 120
CHARSET_REGISTRY "iso8859"
CHARSET_ENCODING "5"
FACE_NAME "97801-480 ISO 8859-5"
X_HEIGHT 12
COPYRIGHT "Copyright (C) Siemens Nixdorf Informationssysteme AG 1992, All Rights Reserved"
WEIGHT 10
QUAD_WIDTH 12
DEFAULT_CHAR 0
FONT_DESCENT 6
FONT_ASCENT 18
ENDPROPERTIES

CHARS 256

STARTCHAR C546=0x222
ENCODING 0
SWIDTH 500 0
DWIDTH 12 0
BBX 12 24 0 -6
BITMAP
0000
0000
1F80
3FC0
6060
6660
6060
3FC0
1F80
0000
1F80
3FC0
6060
6660
6060
3FC0
1F80
0000
0000
0000
0000
0000
0000
0000
ENDCHAR

STARTCHAR C001=0x001
ENCODING 1
SWIDTH 500 0
DWIDTH 12 0
BBX 12 24 0 -6
BITMAP
0000
0000
0000
0000
0060
7FE0
7FE0
3860
1C00
0E00
0600
0000
0000
0F00
3FC0
30C0
6660
6660
30C0
3FC0
0F00
0000
0000
0000
ENDCHAR

STARTCHAR C002=0x002
ENCODING 2
SWIDTH 500 0
DWIDTH 12 0
BBX 12 24 0 -6
BITMAP
0000
0000
0000
3C60
7E60
6660
6660
6660
6760
33E0
31E0
0000
0000
0F00
3FC0
30C0
6660
6660
30C0
3FC0
0F00
0000
0000
0000
ENDCHAR

STARTCHAR C003=0x003
ENCODING 3
SWIDTH 500 0
DWIDTH 12 0
BBX 12 24 0 -6
BITMAP
0000
0000
0000
39C0
7FE0
6660
6660
6660
6060
30C0
30C0
0000
0000
0F00
3FC0
30C0
6660
6660
30C0
3FC0
0F00
0000
0000
0000
ENDCHAR

STARTCHAR C004=0x004
ENCODING 4
SWIDTH 500 0
DWIDTH 12 0
BBX 12 24 0 -6
BITMAP
0000
0000
0000
0300
0FE0
4FE0
6300
7300
3B00
1F00
0F00
0000
0000
0F00
3FC0
30C0
6660
6660
30C0
3FC0
0F00
0000
0000
0000
ENDCHAR

STARTCHAR C005=0x005
ENCODING 5
SWIDTH 500 0
DWIDTH 12 0
BBX 12 24 0 -6
BITMAP
0000
0000
0000
63C0
67E0
6660
6660
6660
6660
7E60
7E60
0000
0000
0F00
3FC0
30C0
6660
6660
30C0
3FC0
0F00
0000
0000
0000
ENDCHAR

STARTCHAR C006=0x006
ENCODING 6
SWIDTH 500 0
DWIDTH 12 0
BBX 12 24 0 -6
BITMAP
0000
0000
0000
01C0
67E0
6660
6660
6660
6660
3FC0
3FC0
0000
0000
0F00
3FC0
30C0
6660
6660
30C0
3FC0
0F00
0000
0000
0000
ENDCHAR

STARTCHAR C007=0x007
ENCODING 7
SWIDTH 500 0
DWIDTH 12 0
BBX 12 24 0 -6
BITMAP
0000
0000
0000
7800
7C00
6E00
6700
6380
61C0
60E0
6060
0000
0000
0F00
3FC0
30C0
6660
6660
30C0
3FC0
0F00
0000
0000
0000
ENDCHAR

STARTCHAR C008=0x008
ENCODING 8
SWIDTH 500 0
DWIDTH 12 0
BBX 12 24 0 -6
BITMAP
0000
0000
0000
39C0
7FE0
6660
6660
6660
6660
7FE0
39C0
0000
0000
0F00
3FC0
30C0
6660
6660
30C0
3FC0
0F00
0000
0000
0000
ENDCHAR

STARTCHAR C009=0x009
ENCODING 9
SWIDTH 500 0
DWIDTH 12 0
BBX 12 24 0 -6
BITMAP
0000
0000
0000
3FC0
7FE0
6660
6660
6660
6660
7C60
3860
0000
0000
0F00
3FC0
30C0
6660
6660
30C0
3FC0
0F00
0000
0000
0000
ENDCHAR

STARTCHAR C010=0x00a
ENCODING 10
SWIDTH 500 0
DWIDTH 12 0
BBX 12 24 0 -6
BITMAP
0000
0000
0000
3FE0
7FE0
6600
6600
6600
6600
7FE0
3FE0
0000
0000
0F00
3FC0
30C0
6660
6660
30C0
3FC0
0F00
0000
0000
0000
ENDCHAR

STARTCHAR C011=0x00b
ENCODING 11
SWIDTH 500 0
DWIDTH 12 0
BBX 12 24 0 -6
BITMAP
0000
0000
0000
1980
7FE0
6660
6660
6660
6660
7FE0
7FE0
0000
0000
0F00
3FC0
30C0
6660
6660
30C0
3FC0
0F00
0000
0000
0000
ENDCHAR

STARTCHAR C012=0x00c
ENCODING 12
SWIDTH 500 0
DWIDTH 12 0
BBX 12 24 0 -6
BITMAP
0000
0000
0000
30C0
30C0
6060
6060
6060
30C0
3FC0
0F00
0000
0000
0F00
3FC0
30C0
6660
6660
30C0
3FC0
0F00
0000
0000
0000
ENDCHAR

STARTCHAR C013=0x00d
ENCODING 13
SWIDTH 500 0
DWIDTH 12 0
BBX 12 24 0 -6
BITMAP
0000
0000
0000
0F00
3FC0
30C0
6060
6060
6060
7FE0
7FE0
0000
0000
0F00
3FC0
30C0
6660
6660
30C0
3FC0
0F00
0000
0000
0000
ENDCHAR

STARTCHAR C014=0x00e
ENCODING 14
SWIDTH 500 0
DWIDTH 12 0
BBX 12 24 0 -6
BITMAP
0000
0000
0000
6060
6060
6660
6660
6660
6660
7FE0
7FE0
0000
0000
0F00
3FC0
30C0
6660
6660
30C0
3FC0
0F00
0000
0000
0000
ENDCHAR

STARTCHAR C015=0x00f
ENCODING 15
SWIDTH 500 0
DWIDTH 12 0
BBX 12 24 0 -6
BITMAP
0000
0000
0000
6000
6000
6600
6600
6600
6600
7FE0
7FE0
0000
0000
0F00
3FC0
30C0
6660
6660
30C0
3FC0
0F00
0000
0000
0000
ENDCHAR

STARTCHAR C016=0x010
ENCODING 16
SWIDTH 500 0
DWIDTH 12 0
BBX 12 24 0 -6
BITMAP
0000
0000
0000
0F00
3FC0
30C0
6660
6660
30C0
3FC0
0F00
0000
0060
0060
7FE0
7FE0
3860
1C60
0E00
0600
0000
0000
0000
0000
ENDCHAR

STARTCHAR C017=0x011
ENCODING 17
SWIDTH 500 0
DWIDTH 12 0
BBX 12 24 0 -6
BITMAP
0000
0000
0000
0000
0060
7FE0
7FE0
3860
1C00
0E00
0600
0000
0000
0060
7FE0
7FE0
3860
1C00
0E00
0600
0000
0000
0000
0000
ENDCHAR

STARTCHAR C018=0x012
ENCODING 18
SWIDTH 500 0
DWIDTH 12 0
BBX 12 24 0 -6
BITMAP
0000
0000
0000
0000
3C60
7E60
6660
6660
6660
6760
33E0
31E0
0000
0060
7FE0
7FE0
3860
1C00
0E00
0600
0000
0000
0000
0000
ENDCHAR

STARTCHAR C019=0x013
ENCODING 19
SWIDTH 500 0
DWIDTH 12 0
BBX 12 24 0 -6
BITMAP
0000
0000
0000
0000
39C0
7FE0
6660
6660
6660
6060
30C0
30C0
0000
0060
7FE0
7FE0
3860
1C00
0E00
0600
0000
0000
0000
0000
ENDCHAR

STARTCHAR C020=0x014
ENCODING 20
SWIDTH 500 0
DWIDTH 12 0
BBX 12 24 0 -6
BITMAP
0000
0000
0000
0300
0FE0
4FE0
6300
7300
3B00
1F00
0F00
0000
0000
0060
7FE0
7FE0
3860
1C00
0E00
0600
0000
0000
0000
0000
ENDCHAR

STARTCHAR C021=0x015
ENCODING 21
SWIDTH 500 0
DWIDTH 12 0
BBX 12 24 0 -6
BITMAP
0000
0000
0000
03C0
67E0
6660
6660
6660
6660
7E60
7E60
0000
0000
0060
7FE0
7FE0
3860
1C00
0E00
0600
0000
0000
0000
0000
ENDCHAR

STARTCHAR C022=0x016
ENCODING 22
SWIDTH 500 0
DWIDTH 12 0
BBX 12 24 0 -6
BITMAP
0000
0000
0000
01C0
67E0
6660
6660
6660
6660
3FC0
3FC0
0000
0000
0060
7FE0
7FE0
3860
1C00
0E00
0600
0000
0000
0000
0000
ENDCHAR

STARTCHAR C023=0x017
ENCODING 23
SWIDTH 500 0
DWIDTH 12 0
BBX 12 24 0 -6
BITMAP
0000
0000
0000
7800
7C00
6E00
6700
6380
61C0
60E0
6060
0000
0000
0060
7FE0
7FE0
3860
1C00
0E00
0600
0000
0000
0000
0000
ENDCHAR

STARTCHAR C024=0x018
ENCODING 24
SWIDTH 500 0
DWIDTH 12 0
BBX 12 24 0 -6
BITMAP
0000
0000
0000
39C0
7FE0
6660
6660
6660
6660
7FE0
39C0
0000
0000
0060
7FE0
7FE0
3860
1C00
0E00
0600
0000
0000
0000
0000
ENDCHAR

STARTCHAR C025=0x019
ENCODING 25
SWIDTH 500 0
DWIDTH 12 0
BBX 12 24 0 -6
BITMAP
0000
0000
0000
3FC0
7FE0
6660
6660
6660
6660
7C60
3860
0000
0000
0060
7FE0
7FE0
3860
1C00
0E00
0600
0000
0000
0000
0000
ENDCHAR

STARTCHAR C026=0x01a
ENCODING 26
SWIDTH 500 0
DWIDTH 12 0
BBX 12 24 0 -6
BITMAP
0000
0000
0000
3FE0
7FE0
6600
6600
6600
6600
7FE0
3FE0
0000
0000
0060
7FE0
7FE0
3860
1C00
0E00
0600
0000
0000
0000
0000
ENDCHAR

STARTCHAR C027=0x01b
ENCODING 27
SWIDTH 500 0
DWIDTH 12 0
BBX 12 24 0 -6
BITMAP
0000
0000
0000
1980
7FE0
6660
6660
6660
6660
7FE0
7FE0
0000
0000
0060
7FE0
7FE0
3860
1C00
0E00
0600
0000
0000
0000
0000
ENDCHAR

STARTCHAR C028=0x01c
ENCODING 28
SWIDTH 500 0
DWIDTH 12 0
BBX 12 24 0 -6
BITMAP
0000
0000
0000
30C0
30C0
6060
6060
6060
30C0
3FC0
0F00
0000
0000
0060
7FE0
7FE0
3860
1C00
0E00
0600
0000
0000
0000
0000
ENDCHAR

STARTCHAR C029=0x01d
ENCODING 29
SWIDTH 500 0
DWIDTH 12 0
BBX 12 24 0 -6
BITMAP
0000
0000
0000
0F00
3FC0
30C0
6060
6060
6060
7FE0
7FE0
0000
0000
0060
7FE0
7FE0
3860
1C00
0E00
0600
0000
0000
0000
0000
ENDCHAR

STARTCHAR C030=0x01e
ENCODING 30
SWIDTH 500 0
DWIDTH 12 0
BBX 12 24 0 -6
BITMAP
0000
0000
0000
6060
6060
6660
6660
6660
6660
7FE0
7FE0
0000
0000
0060
7FE0
7FE0
3860
1C00
0E00
0600
0000
0000
0000
0000
ENDCHAR

STARTCHAR C031=0x01f
ENCODING 31
SWIDTH 500 0
DWIDTH 12 0
BBX 12 24 0 -6
BITMAP
0000
0000
0000
6000
6000
6600
6600
6600
6600
7FE0
7FE0
0000
0000
0060
7FE0
7FE0
3860
1C00
0E00
0600
0000
0000
0000
0000
ENDCHAR

STARTCHAR C032=0x020
ENCODING 32
SWIDTH 500 0
DWIDTH 12 0
BBX 12 24 0 -6
BITMAP
0000
0000
0000
0000
0000
0000
0000
0000
0000
0000
0000
0000
0000
0000
0000
0000
0000
0000
0000
0000
0000
0000
0000
0000
ENDCHAR

STARTCHAR C033=0x021
ENCODING 33
SWIDTH 500 0
DWIDTH 12 0
BBX 12 24 0 -6
BITMAP
0000
0000
0000
0600
0600
0600
0600
0600
0600
0600
0600
0600
0600
0600
0000
0000
0600
0600
0000
0000
0000
0000
0000
0000
ENDCHAR

STARTCHAR C034=0x022
ENCODING 34
SWIDTH 500 0
DWIDTH 12 0
BBX 12 24 0 -6
BITMAP
0000
0000
0000
1980
1980
1980
1980
1980
1980
0000
0000
0000
0000
0000
0000
0000
0000
0000
0000
0000
0000
0000
0000
0000
ENDCHAR

STARTCHAR C035=0x023
ENCODING 35
SWIDTH 500 0
DWIDTH 12 0
BBX 12 24 0 -6
BITMAP
0000
0000
0000
1980
1980
1980
7FE0
7FE0
1980
1980
1980
1980
1980
7FE0
7FE0
1980
1980
1980
0000
0000
0000
0000
0000
0000
ENDCHAR

STARTCHAR C237=0x0ed
ENCODING 36
SWIDTH 500 0
DWIDTH 12 0
BBX 12 24 0 -6
BITMAP
0000
0000
0000
0600
1F80
3FC0
66E0
6660
6600
3E00
1F80
07C0
0660
0660
6660
7FC0
3F80
0600
0000
0000
0000
0000
0000
0000
ENDCHAR

STARTCHAR C037=0x025
ENCODING 37
SWIDTH 500 0
DWIDTH 12 0
BBX 12 24 0 -6
BITMAP
0000
0000
0000
3860
44C0
44C0
4580
3980
0300
0300
0600
0C00
0C00
19C0
1A20
3220
3220
61C0
0000
0000
0000
0000
0000
0000
ENDCHAR

STARTCHAR C038=0x026
ENCODING 38
SWIDTH 500 0
DWIDTH 12 0
BBX 12 24 0 -6
BITMAP
0000
0000
0000
1C00
3E00
6300
6300
6300
3E00
1C00
3E00
7700
6360
61E0
61C0
6180
3FE0
1E60
0000
0000
0000
0000
0000
0000
ENDCHAR

STARTCHAR C039=0x027
ENCODING 39
SWIDTH 500 0
DWIDTH 12 0
BBX 12 24 0 -6
BITMAP
0000
0000
0000
0600
0F00
0F00
0600
0600
0C00
0800
0000
0000
0000
0000
0000
0000
0000
0000
0000
0000
0000
0000
0000
0000
ENDCHAR

STARTCHAR C040=0x028
ENCODING 40
SWIDTH 500 0
DWIDTH 12 0
BBX 12 24 0 -6
BITMAP
0000
0000
0000
0300
0600
0E00
0C00
1C00
1800
1800
1800
1800
1800
1C00
0C00
0E00
0600
0300
0000
0000
0000
0000
0000
0000
ENDCHAR

STARTCHAR C041=0x029
ENCODING 41
SWIDTH 500 0
DWIDTH 12 0
BBX 12 24 0 -6
BITMAP
0000
0000
0000
1800
0C00
0E00
0600
0700
0300
0300
0300
0300
0300
0700
0600
0E00
0C00
1800
0000
0000
0000
0000
0000
0000
ENDCHAR

STARTCHAR C042=0x02a
ENCODING 42
SWIDTH 500 0
DWIDTH 12 0
BBX 12 24 0 -6
BITMAP
0000
0000
0000
0000
0000
0600
0600
6660
76E0
1F80
0F00
0F00
1F80
76E0
6660
0600
0600
0000
0000
0000
0000
0000
0000
0000
ENDCHAR

STARTCHAR C043=0x02b
ENCODING 43
SWIDTH 500 0
DWIDTH 12 0
BBX 12 24 0 -6
BITMAP
0000
0000
0000
0000
0000
0600
0600
0600
0600
0600
7FE0
7FE0
0600
0600
0600
0600
0600
0000
0000
0000
0000
0000
0000
0000
ENDCHAR

STARTCHAR C044=0x02c
ENCODING 44
SWIDTH 500 0
DWIDTH 12 0
BBX 12 24 0 -6
BITMAP
0000
0000
0000
0000
0000
0000
0000
0000
0000
0000
0000
0000
0000
0000
0000
0600
0F00
0F00
0600
0600
0C00
0800
0000
0000
ENDCHAR

STARTCHAR C045=0x02d
ENCODING 45
SWIDTH 500 0
DWIDTH 12 0
BBX 12 24 0 -6
BITMAP
0000
0000
0000
0000
0000
0000
0000
0000
0000
0000
3FC0
3FC0
0000
0000
0000
0000
0000
0000
0000
0000
0000
0000
0000
0000
ENDCHAR

STARTCHAR C046=0x02e
ENCODING 46
SWIDTH 500 0
DWIDTH 12 0
BBX 12 24 0 -6
BITMAP
0000
0000
0000
0000
0000
0000
0000
0000
0000
0000
0000
0000
0000
0000
0600
0F00
0F00
0600
0000
0000
0000
0000
0000
0000
ENDCHAR

STARTCHAR C047=0x02f
ENCODING 47
SWIDTH 500 0
DWIDTH 12 0
BBX 12 24 0 -6
BITMAP
0000
0000
0000
0000
0060
00C0
00C0
0180
0300
0300
0600
0C00
0C00
1800
3000
3000
6000
0000
0000
0000
0000
0000
0000
0000
ENDCHAR

STARTCHAR C048=0x030
ENCODING 48
SWIDTH 500 0
DWIDTH 12 0
BBX 12 24 0 -6
BITMAP
0000
0000
0000
1F80
3FC0
70E0
6060
6060
6660
6660
6660
6660
6660
6060
6060
70E0
3FC0
1F80
0000
0000
0000
0000
0000
0000
ENDCHAR

STARTCHAR C049=0x031
ENCODING 49
SWIDTH 500 0
DWIDTH 12 0
BBX 12 24 0 -6
BITMAP
0000
0000
0000
0300
0700
0F00
1F00
3B00
3300
0300
0300
0300
0300
0300
0300
0300
0300
0300
0000
0000
0000
0000
0000
0000
ENDCHAR

STARTCHAR C050=0x032
ENCODING 50
SWIDTH 500 0
DWIDTH 12 0
BBX 12 24 0 -6
BITMAP
0000
0000
0000
1F80
3FC0
70E0
6060
0060
0060
00E0
07C0
1F80
3800
3000
6000
6000
7FE0
7FE0
0000
0000
0000
0000
0000
0000
ENDCHAR

STARTCHAR C051=0x033
ENCODING 51
SWIDTH 500 0
DWIDTH 12 0
BBX 12 24 0 -6
BITMAP
0000
0000
0000
1F80
3FC0
60E0
6060
0060
00C0
0F80
0FC0
0060
0060
0060
6060
60E0
3FC0
1F80
0000
0000
0000
0000
0000
0000
ENDCHAR

STARTCHAR C052=0x034
ENCODING 52
SWIDTH 500 0
DWIDTH 12 0
BBX 12 24 0 -6
BITMAP
0000
0000
0000
0600
0600
0C00
0C00
1800
1800
3180
3180
6180
6180
7FE0
7FE0
0180
0180
0180
0000
0000
0000
0000
0000
0000
ENDCHAR

STARTCHAR C053=0x035
ENCODING 53
SWIDTH 500 0
DWIDTH 12 0
BBX 12 24 0 -6
BITMAP
0000
0000
0000
7FC0
7FC0
6000
6000
6000
7F80
7FC0
00E0
0060
0060
0060
6060
60E0
3FC0
1F80
0000
0000
0000
0000
0000
0000
ENDCHAR

STARTCHAR C054=0x036
ENCODING 54
SWIDTH 500 0
DWIDTH 12 0
BBX 12 24 0 -6
BITMAP
0000
0000
0000
0F80
1F80
3800
7000
6000
6000
6F80
7FC0
70E0
6060
6060
6060
70E0
3FC0
1F80
0000
0000
0000
0000
0000
0000
ENDCHAR

STARTCHAR C055=0x037
ENCODING 55
SWIDTH 500 0
DWIDTH 12 0
BBX 12 24 0 -6
BITMAP
0000
0000
0000
7FE0
7FE0
00C0
0180
0180
0300
0600
0600
0C00
0C00
0C00
0C00
0C00
0C00
0C00
0000
0000
0000
0000
0000
0000
ENDCHAR

STARTCHAR C056=0x038
ENCODING 56
SWIDTH 500 0
DWIDTH 12 0
BBX 12 24 0 -6
BITMAP
0000
0000
0000
1F80
3FC0
70E0
6060
6060
70E0
3FC0
1F80
3FC0
70E0
6060
6060
70E0
3FC0
1F80
0000
0000
0000
0000
0000
0000
ENDCHAR

STARTCHAR C057=0x039
ENCODING 57
SWIDTH 500 0
DWIDTH 12 0
BBX 12 24 0 -6
BITMAP
0000
0000
0000
1F80
3FC0
70E0
6060
6060
6060
70E0
3FE0
1F60
0060
0060
0060
00E0
3FC0
3F80
0000
0000
0000
0000
0000
0000
ENDCHAR

STARTCHAR C058=0x03a
ENCODING 58
SWIDTH 500 0
DWIDTH 12 0
BBX 12 24 0 -6
BITMAP
0000
0000
0000
0000
0000
0000
0000
0000
0600
0F00
0F00
0600
0000
0000
0600
0F00
0F00
0600
0000
0000
0000
0000
0000
0000
ENDCHAR

STARTCHAR C059=0x03b
ENCODING 59
SWIDTH 500 0
DWIDTH 12 0
BBX 12 24 0 -6
BITMAP
0000
0000
0000
0000
0000
0000
0000
0000
0600
0F00
0F00
0600
0000
0000
0000
0600
0F00
0F00
0600
0600
0600
0C00
0800
0000
ENDCHAR

STARTCHAR C060=0x03c
ENCODING 60
SWIDTH 500 0
DWIDTH 12 0
BBX 12 24 0 -6
BITMAP
0000
0000
0000
00C0
0180
0300
0600
0C00
1800
3000
6000
3000
1800
0C00
0600
0300
0180
00C0
0000
0000
0000
0000
0000
0000
ENDCHAR

STARTCHAR C061=0x03d
ENCODING 61
SWIDTH 500 0
DWIDTH 12 0
BBX 12 24 0 -6
BITMAP
0000
0000
0000
0000
0000
0000
0000
0000
3FC0
3FC0
0000
0000
0000
3FC0
3FC0
0000
0000
0000
0000
0000
0000
0000
0000
0000
ENDCHAR

STARTCHAR C062=0x03e
ENCODING 62
SWIDTH 500 0
DWIDTH 12 0
BBX 12 24 0 -6
BITMAP
0000
0000
0000
3000
1800
0C00
0600
0300
0180
00C0
0060
00C0
0180
0300
0600
0C00
1800
3000
0000
0000
0000
0000
0000
0000
ENDCHAR

STARTCHAR C063=0x03f
ENCODING 63
SWIDTH 500 0
DWIDTH 12 0
BBX 12 24 0 -6
BITMAP
0000
0000
0000
1F00
3FC0
60C0
6060
0060
00C0
0180
0300
0600
0600
0600
0000
0000
0600
0600
0000
0000
0000
0000
0000
0000
ENDCHAR

STARTCHAR C064=0x040
ENCODING 64
SWIDTH 500 0
DWIDTH 12 0
BBX 12 24 0 -6
BITMAP
0000
0000
0000
1F80
3F80
70C0
60C0
0060
1C60
3E60
7760
6360
6360
6360
6360
77E0
3FE0
1EC0
0000
0000
0000
0000
0000
0000
ENDCHAR

STARTCHAR C065=0x041
ENCODING 65
SWIDTH 500 0
DWIDTH 12 0
BBX 12 24 0 -6
BITMAP
0000
0000
0000
0600
0F00
1980
30C0
6060
6060
6060
7FE0
7FE0
6060
6060
6060
6060
6060
6060
0000
0000
0000
0000
0000
0000
ENDCHAR

STARTCHAR C066=0x042
ENCODING 66
SWIDTH 500 0
DWIDTH 12 0
BBX 12 24 0 -6
BITMAP
0000
0000
0000
7F80
7FC0
30C0
3060
3060
30C0
3F80
3F80
30C0
3060
3060
3060
30C0
7FC0
7F00
0000
0000
0000
0000
0000
0000
ENDCHAR

STARTCHAR C067=0x043
ENCODING 67
SWIDTH 500 0
DWIDTH 12 0
BBX 12 24 0 -6
BITMAP
0000
0000
0000
1F80
3FC0
70E0
6060
6000
6000
6000
6000
6000
6000
6000
6060
70E0
3FC0
1F80
0000
0000
0000
0000
0000
0000
ENDCHAR

STARTCHAR C068=0x044
ENCODING 68
SWIDTH 500 0
DWIDTH 12 0
BBX 12 24 0 -6
BITMAP
0000
0000
0000
7F00
7F80
31C0
30E0
3060
3060
3060
3060
3060
3060
3060
30E0
31C0
7F80
7F00
0000
0000
0000
0000
0000
0000
ENDCHAR

STARTCHAR C069=0x045
ENCODING 69
SWIDTH 500 0
DWIDTH 12 0
BBX 12 24 0 -6
BITMAP
0000
0000
0000
7FE0
7FE0
6000
6000
6000
6000
7F80
7F80
6000
6000
6000
6000
6000
7FE0
7FE0
0000
0000
0000
0000
0000
0000
ENDCHAR

STARTCHAR C070=0x046
ENCODING 70
SWIDTH 500 0
DWIDTH 12 0
BBX 12 24 0 -6
BITMAP
0000
0000
0000
7FE0
7FE0
6000
6000
6000
6000
6000
7F80
7F80
6000
6000
6000
6000
6000
6000
0000
0000
0000
0000
0000
0000
ENDCHAR

STARTCHAR C071=0x047
ENCODING 71
SWIDTH 500 0
DWIDTH 12 0
BBX 12 24 0 -6
BITMAP
0000
0000
0000
1F80
3FC0
70E0
6060
6000
6000
6000
63E0
63E0
6060
6060
6060
70E0
3FC0
1F80
0000
0000
0000
0000
0000
0000
ENDCHAR

STARTCHAR C072=0x048
ENCODING 72
SWIDTH 500 0
DWIDTH 12 0
BBX 12 24 0 -6
BITMAP
0000
0000
0000
6060
6060
6060
6060
6060
6060
7FE0
7FE0
6060
6060
6060
6060
6060
6060
6060
0000
0000
0000
0000
0000
0000
ENDCHAR

STARTCHAR C073=0x049
ENCODING 73
SWIDTH 500 0
DWIDTH 12 0
BBX 12 24 0 -6
BITMAP
0000
0000
0000
3FC0
3FC0
0600
0600
0600
0600
0600
0600
0600
0600
0600
0600
0600
3FC0
3FC0
0000
0000
0000
0000
0000
0000
ENDCHAR

STARTCHAR C074=0x04a
ENCODING 74
SWIDTH 500 0
DWIDTH 12 0
BBX 12 24 0 -6
BITMAP
0000
0000
0000
00C0
00C0
00C0
00C0
00C0
00C0
00C0
00C0
00C0
00C0
00C0
60C0
61C0
3F80
1F00
0000
0000
0000
0000
0000
0000
ENDCHAR

STARTCHAR C075=0x04b
ENCODING 75
SWIDTH 500 0
DWIDTH 12 0
BBX 12 24 0 -6
BITMAP
0000
0000
0000
6060
60C0
6180
6300
6600
6C00
7800
7800
7800
6C00
6600
6300
6180
60C0
6060
0000
0000
0000
0000
0000
0000
ENDCHAR

STARTCHAR C076=0x04c
ENCODING 76
SWIDTH 500 0
DWIDTH 12 0
BBX 12 24 0 -6
BITMAP
0000
0000
0000
6000
6000
6000
6000
6000
6000
6000
6000
6000
6000
6000
6000
6000
7FE0
7FE0
0000
0000
0000
0000
0000
0000
ENDCHAR

STARTCHAR C077=0x04d
ENCODING 77
SWIDTH 500 0
DWIDTH 12 0
BBX 12 24 0 -6
BITMAP
0000
0000
0000
6060
70E0
70E0
79E0
7960
6F60
6F60
6660
6660
6060
6060
6060
6060
6060
6060
0000
0000
0000
0000
0000
0000
ENDCHAR

STARTCHAR C078=0x04e
ENCODING 78
SWIDTH 500 0
DWIDTH 12 0
BBX 12 24 0 -6
BITMAP
0000
0000
0000
6060
7060
7060
7860
7860
6C60
6E60
6660
6760
6360
61E0
61E0
60E0
60E0
6060
0000
0000
0000
0000
0000
0000
ENDCHAR

STARTCHAR C079=0x04f
ENCODING 79
SWIDTH 500 0
DWIDTH 12 0
BBX 12 24 0 -6
BITMAP
0000
0000
0000
0F00
3FC0
39C0
70E0
6060
6060
6060
6060
6060
6060
6060
70E0
39C0
3FC0
0F00
0000
0000
0000
0000
0000
0000
ENDCHAR

STARTCHAR C080=0x050
ENCODING 80
SWIDTH 500 0
DWIDTH 12 0
BBX 12 24 0 -6
BITMAP
0000
0000
0000
7F80
7FC0
60E0
6060
6060
6060
60E0
7FC0
7F80
6000
6000
6000
6000
6000
6000
0000
0000
0000
0000
0000
0000
ENDCHAR

STARTCHAR C081=0x051
ENCODING 81
SWIDTH 500 0
DWIDTH 12 0
BBX 12 24 0 -6
BITMAP
0000
0000
0000
1F80
3FC0
70E0
6060
6060
6060
6060
6060
6060
6C60
6E60
66E0
7380
3FC0
1EE0
0000
0000
0000
0000
0000
0000
ENDCHAR

STARTCHAR C082=0x052
ENCODING 82
SWIDTH 500 0
DWIDTH 12 0
BBX 12 24 0 -6
BITMAP
0000
0000
0000
7F80
7FC0
60E0
6060
6060
60E0
7FC0
7F80
6300
6180
6180
60C0
60C0
6060
6060
0000
0000
0000
0000
0000
0000
ENDCHAR

STARTCHAR C083=0x053
ENCODING 83
SWIDTH 500 0
DWIDTH 12 0
BBX 12 24 0 -6
BITMAP
0000
0000
0000
1F80
3FC0
70E0
6060
6000
7000
3F80
1FC0
00E0
0060
0060
6060
70E0
3FC0
1F80
0000
0000
0000
0000
0000
0000
ENDCHAR

STARTCHAR C084=0x054
ENCODING 84
SWIDTH 500 0
DWIDTH 12 0
BBX 12 24 0 -6
BITMAP
0000
0000
0000
7FE0
7FE0
0600
0600
0600
0600
0600
0600
0600
0600
0600
0600
0600
0600
0600
0000
0000
0000
0000
0000
0000
ENDCHAR

STARTCHAR C085=0x055
ENCODING 85
SWIDTH 500 0
DWIDTH 12 0
BBX 12 24 0 -6
BITMAP
0000
0000
0000
6060
6060
6060
6060
6060
6060
6060
6060
6060
6060
6060
6060
70E0
3FC0
1F80
0000
0000
0000
0000
0000
0000
ENDCHAR

STARTCHAR C086=0x056
ENCODING 86
SWIDTH 500 0
DWIDTH 12 0
BBX 12 24 0 -6
BITMAP
0000
0000
0000
6060
6060
6060
6060
30C0
30C0
30C0
1980
1980
1980
0900
0F00
0F00
0600
0600
0000
0000
0000
0000
0000
0000
ENDCHAR

STARTCHAR C087=0x057
ENCODING 87
SWIDTH 500 0
DWIDTH 12 0
BBX 12 24 0 -6
BITMAP
0000
0000
0000
6060
6060
6060
6060
6060
6060
6660
6660
6F60
6F60
79E0
79E0
70E0
70E0
6060
0000
0000
0000
0000
0000
0000
ENDCHAR

STARTCHAR C088=0x058
ENCODING 88
SWIDTH 500 0
DWIDTH 12 0
BBX 12 24 0 -6
BITMAP
0000
0000
0000
6060
6060
30C0
30C0
1980
1980
0F00
0F00
0F00
1980
1980
30C0
30C0
6060
6060
0000
0000
0000
0000
0000
0000
ENDCHAR

STARTCHAR C089=0x059
ENCODING 89
SWIDTH 500 0
DWIDTH 12 0
BBX 12 24 0 -6
BITMAP
0000
0000
0000
6060
6060
30C0
30C0
1980
1980
0F00
0F00
0600
0600
0600
0600
0600
0600
0600
0000
0000
0000
0000
0000
0000
ENDCHAR

STARTCHAR C090=0x05a
ENCODING 90
SWIDTH 500 0
DWIDTH 12 0
BBX 12 24 0 -6
BITMAP
0000
0000
0000
7FE0
7FE0
0060
00E0
01C0
0380
0700
0E00
1C00
3800
7000
6000
6000
7FE0
7FE0
0000
0000
0000
0000
0000
0000
ENDCHAR

STARTCHAR C091=0x05b
ENCODING 91
SWIDTH 500 0
DWIDTH 12 0
BBX 12 24 0 -6
BITMAP
0000
1F00
1F00
1800
1800
1800
1800
1800
1800
1800
1800
1800
1800
1800
1800
1800
1800
1800
1800
1F00
1F00
0000
0000
0000
ENDCHAR

STARTCHAR C092=0x05c
ENCODING 92
SWIDTH 500 0
DWIDTH 12 0
BBX 12 24 0 -6
BITMAP
0000
0000
0000
0000
6000
3000
3000
1800
0C00
0C00
0600
0300
0300
0180
00C0
00C0
0060
0000
0000
0000
0000
0000
0000
0000
ENDCHAR

STARTCHAR C093=0x05d
ENCODING 93
SWIDTH 500 0
DWIDTH 12 0
BBX 12 24 0 -6
BITMAP
0000
1F00
1F00
0300
0300
0300
0300
0300
0300
0300
0300
0300
0300
0300
0300
0300
0300
0300
0300
1F00
1F00
0000
0000
0000
ENDCHAR

STARTCHAR C094=0x05e
ENCODING 94
SWIDTH 500 0
DWIDTH 12 0
BBX 12 24 0 -6
BITMAP
0000
0000
0000
0600
0F00
1980
30C0
0000
0000
0000
0000
0000
0000
0000
0000
0000
0000
0000
0000
0000
0000
0000
0000
0000
ENDCHAR

STARTCHAR C095=0x05f
ENCODING 95
SWIDTH 500 0
DWIDTH 12 0
BBX 12 24 0 -6
BITMAP
0000
0000
0000
0000
0000
0000
0000
0000
0000
0000
0000
0000
0000
0000
0000
0000
7FE0
7FE0
0000
0000
0000
0000
0000
0000
ENDCHAR

STARTCHAR C096=0x060
ENCODING 96
SWIDTH 500 0
DWIDTH 12 0
BBX 12 24 0 -6
BITMAP
0000
0000
0000
0600
0F00
0F00
0600
0600
0300
0300
0000
0000
0000
0000
0000
0000
0000
0000
0000
0000
0000
0000
0000
0000
ENDCHAR

STARTCHAR C097=0x061
ENCODING 97
SWIDTH 500 0
DWIDTH 12 0
BBX 12 24 0 -6
BITMAP
0000
0000
0000
0000
0000
0000
0F80
3FC0
70E0
0060
0060
1FE0
3FE0
7060
6060
61E0
7FE0
3E60
0000
0000
0000
0000
0000
0000
ENDCHAR

STARTCHAR C098=0x062
ENCODING 98
SWIDTH 500 0
DWIDTH 12 0
BBX 12 24 0 -6
BITMAP
0000
0000
0000
6000
6000
6000
6F00
7FC0
78C0
6060
6060
6060
6060
6060
6060
78C0
7FC0
6700
0000
0000
0000
0000
0000
0000
ENDCHAR

STARTCHAR C099=0x063
ENCODING 99
SWIDTH 500 0
DWIDTH 12 0
BBX 12 24 0 -6
BITMAP
0000
0000
0000
0000
0000
0000
0FC0
3FE0
3060
6000
6000
6000
6000
6000
6000
3060
3FE0
0FC0
0000
0000
0000
0000
0000
0000
ENDCHAR

STARTCHAR C100=0x064
ENCODING 100
SWIDTH 500 0
DWIDTH 12 0
BBX 12 24 0 -6
BITMAP
0000
0000
0000
0060
0060
0060
0F60
3FE0
31E0
6060
6060
6060
6060
6060
6060
31E0
3FE0
0E60
0000
0000
0000
0000
0000
0000
ENDCHAR

STARTCHAR C101=0x065
ENCODING 101
SWIDTH 500 0
DWIDTH 12 0
BBX 12 24 0 -6
BITMAP
0000
0000
0000
0000
0000
0000
0F00
3FC0
30C0
6060
6060
7FE0
7FE0
6000
6000
30C0
3FC0
0F80
0000
0000
0000
0000
0000
0000
ENDCHAR

STARTCHAR C102=0x066
ENCODING 102
SWIDTH 500 0
DWIDTH 12 0
BBX 12 24 0 -6
BITMAP
0000
0000
0000
03E0
07E0
0600
0600
7FE0
7FE0
0600
0600
0600
0600
0600
0600
0600
0600
0600
0000
0000
0000
0000
0000
0000
ENDCHAR

STARTCHAR C103=0x067
ENCODING 103
SWIDTH 500 0
DWIDTH 12 0
BBX 12 24 0 -6
BITMAP
0000
0000
0000
0000
0000
0000
1E60
3F60
71E0
60E0
6060
6060
6060
6060
6060
70E0
3FE0
1F60
0060
20E0
3FC0
1F80
0000
0000
ENDCHAR

STARTCHAR C104=0x068
ENCODING 104
SWIDTH 500 0
DWIDTH 12 0
BBX 12 24 0 -6
BITMAP
0000
0000
0000
6000
6000
6000
6F80
7FC0
7060
6060
6060
6060
6060
6060
6060
6060
6060
6060
0000
0000
0000
0000
0000
0000
ENDCHAR

STARTCHAR C105=0x069
ENCODING 105
SWIDTH 500 0
DWIDTH 12 0
BBX 12 24 0 -6
BITMAP
0000
0000
0000
0600
0600
0000
3E00
3E00
0600
0600
0600
0600
0600
0600
0600
0600
3FC0
3FC0
0000
0000
0000
0000
0000
0000
ENDCHAR

STARTCHAR C106=0x06a
ENCODING 106
SWIDTH 500 0
DWIDTH 12 0
BBX 12 24 0 -6
BITMAP
0000
0000
0000
0300
0300
0000
1F00
1F00
0300
0300
0300
0300
0300
0300
0300
0300
0300
0300
0300
3300
3F00
1E00
0000
0000
ENDCHAR

STARTCHAR C107=0x06b
ENCODING 107
SWIDTH 500 0
DWIDTH 12 0
BBX 12 24 0 -6
BITMAP
0000
0000
0000
6000
6000
6000
6060
60C0
6180
6300
6600
7C00
7C00
6600
6300
6180
60C0
6060
0000
0000
0000
0000
0000
0000
ENDCHAR

STARTCHAR C108=0x06c
ENCODING 108
SWIDTH 500 0
DWIDTH 12 0
BBX 12 24 0 -6
BITMAP
0000
0000
0000
0C00
0C00
0C00
0C00
0C00
0C00
0C00
0C00
0C00
0C00
0C00
0C00
0E00
07C0
03C0
0000
0000
0000
0000
0000
0000
ENDCHAR

STARTCHAR C109=0x06d
ENCODING 109
SWIDTH 500 0
DWIDTH 12 0
BBX 12 24 0 -6
BITMAP
0000
0000
0000
0000
0000
0000
7980
7FE0
6EE0
6660
6660
6660
6660
6660
6660
6660
6660
6660
0000
0000
0000
0000
0000
0000
ENDCHAR

STARTCHAR C110=0x06e
ENCODING 110
SWIDTH 500 0
DWIDTH 12 0
BBX 12 24 0 -6
BITMAP
0000
0000
0000
0000
0000
0000
6780
7FC0
78E0
6060
6060
6060
6060
6060
6060
6060
6060
6060
0000
0000
0000
0000
0000
0000
ENDCHAR

STARTCHAR C111=0x06f
ENCODING 111
SWIDTH 500 0
DWIDTH 12 0
BBX 12 24 0 -6
BITMAP
0000
0000
0000
0000
0000
0000
0F00
3FC0
30C0
6060
6060
6060
6060
6060
6060
30C0
3FC0
0F00
0000
0000
0000
0000
0000
0000
ENDCHAR

STARTCHAR C112=0x070
ENCODING 112
SWIDTH 500 0
DWIDTH 12 0
BBX 12 24 0 -6
BITMAP
0000
0000
0000
0000
0000
0000
6700
7FC0
78C0
6060
6060
6060
6060
6060
6060
78C0
7FC0
6700
6000
6000
6000
6000
0000
0000
ENDCHAR

STARTCHAR C113=0x071
ENCODING 113
SWIDTH 500 0
DWIDTH 12 0
BBX 12 24 0 -6
BITMAP
0000
0000
0000
0000
0000
0000
0E60
3FE0
31E0
6060
6060
6060
6060
6060
6060
31E0
3FE0
0E60
0060
0060
0060
0060
0000
0000
ENDCHAR

STARTCHAR C114=0x072
ENCODING 114
SWIDTH 500 0
DWIDTH 12 0
BBX 12 24 0 -6
BITMAP
0000
0000
0000
0000
0000
0000
3380
3FC0
3C60
3860
3000
3000
3000
3000
3000
3000
3000
3000
0000
0000
0000
0000
0000
0000
ENDCHAR

STARTCHAR C115=0x073
ENCODING 115
SWIDTH 500 0
DWIDTH 12 0
BBX 12 24 0 -6
BITMAP
0000
0000
0000
0000
0000
0000
1FC0
3FE0
7060
6000
7000
3F80
1FC0
00E0
0060
60E0
7FC0
3F80
0000
0000
0000
0000
0000
0000
ENDCHAR

STARTCHAR C116=0x074
ENCODING 116
SWIDTH 500 0
DWIDTH 12 0
BBX 12 24 0 -6
BITMAP
0000
0000
0000
0600
0600
0600
7FE0
7FE0
0600
0600
0600
0600
0600
0600
0600
0700
03E0
01E0
0000
0000
0000
0000
0000
0000
ENDCHAR

STARTCHAR C117=0x075
ENCODING 117
SWIDTH 500 0
DWIDTH 12 0
BBX 12 24 0 -6
BITMAP
0000
0000
0000
0000
0000
0000
6060
6060
6060
6060
6060
6060
6060
6060
61E0
73E0
3F60
1E60
0000
0000
0000
0000
0000
0000
ENDCHAR

STARTCHAR C118=0x076
ENCODING 118
SWIDTH 500 0
DWIDTH 12 0
BBX 12 24 0 -6
BITMAP
0000
0000
0000
0000
0000
0000
6060
6060
6060
2040
30C0
30C0
1980
1980
0900
0F00
0600
0600
0000
0000
0000
0000
0000
0000
ENDCHAR

STARTCHAR C119=0x077
ENCODING 119
SWIDTH 500 0
DWIDTH 12 0
BBX 12 24 0 -6
BITMAP
0000
0000
0000
0000
0000
0000
6060
6060
6060
6060
6060
6660
6F60
6F60
79E0
79E0
70E0
6060
0000
0000
0000
0000
0000
0000
ENDCHAR

STARTCHAR C120=0x078
ENCODING 120
SWIDTH 500 0
DWIDTH 12 0
BBX 12 24 0 -6
BITMAP
0000
0000
0000
0000
0000
0000
6060
70E0
30C0
39C0
1F80
0F00
0F00
1F80
19C0
30C0
70E0
6060
0000
0000
0000
0000
0000
0000
ENDCHAR

STARTCHAR C121=0x079
ENCODING 121
SWIDTH 500 0
DWIDTH 12 0
BBX 12 24 0 -6
BITMAP
0000
0000
0000
0000
0000
0000
6060
6060
30C0
30C0
30C0
1980
1980
0900
0F00
0F00
0600
0600
0600
0E00
7C00
7800
0000
0000
ENDCHAR

STARTCHAR C122=0x07a
ENCODING 122
SWIDTH 500 0
DWIDTH 12 0
BBX 12 24 0 -6
BITMAP
0000
0000
0000
0000
0000
0000
7FE0
7FE0
0060
00C0
0180
0300
0600
0C00
1800
3000
7FE0
7FE0
0000
0000
0000
0000
0000
0000
ENDCHAR

STARTCHAR C123=0x07b
ENCODING 123
SWIDTH 500 0
DWIDTH 12 0
BBX 12 24 0 -6
BITMAP
0000
0380
0780
0600
0600
0600
0600
0600
0600
3C00
3C00
0600
0600
0600
0600
0600
0600
0600
0780
0380
0000
0000
0000
0000
ENDCHAR

STARTCHAR C124=0x07c
ENCODING 124
SWIDTH 500 0
DWIDTH 12 0
BBX 12 24 0 -6
BITMAP
0000
0000
0000
0600
0600
0600
0600
0600
0600
0600
0600
0600
0600
0600
0600
0600
0600
0600
0000
0000
0000
0000
0000
0000
ENDCHAR

STARTCHAR C125=0x07d
ENCODING 125
SWIDTH 500 0
DWIDTH 12 0
BBX 12 24 0 -6
BITMAP
0000
1C00
1E00
0600
0600
0600
0600
0600
0600
07C0
07C0
0600
0600
0600
0600
0600
0600
0600
1E00
1C00
0000
0000
0000
0000
ENDCHAR

STARTCHAR C253=0x0fd
ENCODING 126
SWIDTH 500 0
DWIDTH 12 0
BBX 12 24 0 -6
BITMAP
0000
0000
0000
0C20
3E60
33E0
6180
0000
0000
0000
0000
0000
0000
0000
0000
0000
0000
0000
0000
0000
0000
0000
0000
0000
ENDCHAR

STARTCHAR C127=0x07f
ENCODING 127
SWIDTH 500 0
DWIDTH 12 0
BBX 12 24 0 -6
BITMAP
0000
0000
0000
0000
0000
0000
0000
6660
6660
1980
1980
6660
6660
1980
1980
6660
6660
0000
0000
0000
0000
0000
0000
0000
ENDCHAR

STARTCHAR C768=0x300
ENCODING 128
SWIDTH 500 0
DWIDTH 12 0
BBX 12 24 0 -6
BITMAP
0600
0600
0600
0600
0600
0600
0600
0600
0600
0600
0600
0600
0600
0600
0600
0600
0600
0600
0600
0600
0600
0600
0600
0600
ENDCHAR

STARTCHAR C769=0x301
ENCODING 129
SWIDTH 500 0
DWIDTH 12 0
BBX 12 24 0 -6
BITMAP
0000
0000
0000
0000
0000
0000
0000
0000
0000
0000
0000
FFF0
FFF0
0000
0000
0000
0000
0000
0000
0000
0000
0000
0000
0000
ENDCHAR

STARTCHAR C770=0x302
ENCODING 130
SWIDTH 500 0
DWIDTH 12 0
BBX 12 24 0 -6
BITMAP
0000
0000
0000
0000
0000
0000
0000
0000
0000
0000
0000
07F0
07F0
0600
0600
0600
0600
0600
0600
0600
0600
0600
0600
0600
ENDCHAR

STARTCHAR C771=0x303
ENCODING 131
SWIDTH 500 0
DWIDTH 12 0
BBX 12 24 0 -6
BITMAP
0000
0000
0000
0000
0000
0000
0000
0000
0000
0000
0000
FE00
FE00
0600
0600
0600
0600
0600
0600
0600
0600
0600
0600
0600
ENDCHAR

STARTCHAR C772=0x304
ENCODING 132
SWIDTH 500 0
DWIDTH 12 0
BBX 12 24 0 -6
BITMAP
0600
0600
0600
0600
0600
0600
0600
0600
0600
0600
0600
07F0
07F0
0000
0000
0000
0000
0000
0000
0000
0000
0000
0000
0000
ENDCHAR

STARTCHAR C773=0x305
ENCODING 133
SWIDTH 500 0
DWIDTH 12 0
BBX 12 24 0 -6
BITMAP
0600
0600
0600
0600
0600
0600
0600
0600
0600
0600
0600
FE00
FE00
0000
0000
0000
0000
0000
0000
0000
0000
0000
0000
0000
ENDCHAR

STARTCHAR C774=0x306
ENCODING 134
SWIDTH 500 0
DWIDTH 12 0
BBX 12 24 0 -6
BITMAP
0600
0600
0600
0600
0600
0600
0600
0600
0600
0600
0600
07F0
07F0
0600
0600
0600
0600
0600
0600
0600
0600
0600
0600
0600
ENDCHAR

STARTCHAR C775=0x307
ENCODING 135
SWIDTH 500 0
DWIDTH 12 0
BBX 12 24 0 -6
BITMAP
0600
0600
0600
0600
0600
0600
0600
0600
0600
0600
0600
FE00
FE00
0600
0600
0600
0600
0600
0600
0600
0600
0600
0600
0600
ENDCHAR

STARTCHAR C776=0x308
ENCODING 136
SWIDTH 500 0
DWIDTH 12 0
BBX 12 24 0 -6
BITMAP
0000
0000
0000
0000
0000
0000
0000
0000
0000
0000
0000
FFF0
FFF0
0600
0600
0600
0600
0600
0600
0600
0600
0600
0600
0600
ENDCHAR

STARTCHAR C777=0x309
ENCODING 137
SWIDTH 500 0
DWIDTH 12 0
BBX 12 24 0 -6
BITMAP
0600
0600
0600
0600
0600
0600
0600
0600
0600
0600
0600
FFF0
FFF0
0000
0000
0000
0000
0000
0000
0000
0000
0000
0000
0000
ENDCHAR

STARTCHAR C778=0x30a
ENCODING 138
SWIDTH 500 0
DWIDTH 12 0
BBX 12 24 0 -6
BITMAP
0600
0600
0600
0600
0600
0600
0600
0600
0600
0600
0600
FFF0
FFF0
0600
0600
0600
0600
0600
0600
0600
0600
0600
0600
0600
ENDCHAR

STARTCHAR C779=0x30b
ENCODING 139
SWIDTH 500 0
DWIDTH 12 0
BBX 12 24 0 -6
BITMAP
0000
0000
0000
0000
0000
0000
0000
0000
0000
0000
0000
0000
0000
0000
0000
0000
0000
0000
0000
0000
0000
FFF0
FFF0
0000
ENDCHAR

STARTCHAR C780=0x30c
ENCODING 140
SWIDTH 500 0
DWIDTH 12 0
BBX 12 24 0 -6
BITMAP
0000
0000
0000
30C0
30C0
6060
6060
6060
30C0
3FC0
0F00
0000
0000
39C0
7FE0
6660
6660
6660
6660
7FE0
39C0
0000
0000
0000
ENDCHAR

STARTCHAR C781=0x30d
ENCODING 141
SWIDTH 500 0
DWIDTH 12 0
BBX 12 24 0 -6
BITMAP
0000
0000
0000
0F00
3FC0
30C0
6060
6060
6060
7FE0
7FE0
0000
0000
39C0
7FE0
6660
6660
6660
6660
7FE0
39C0
0000
0000
0000
ENDCHAR

STARTCHAR C782=0x30e
ENCODING 142
SWIDTH 500 0
DWIDTH 12 0
BBX 12 24 0 -6
BITMAP
0000
0000
0000
6060
6060
6660
6660
6660
6660
7FE0
7FE0
0000
0000
39C0
7FE0
6660
6660
6660
6660
7FE0
39C0
0000
0000
0000
ENDCHAR

STARTCHAR C783=0x30f
ENCODING 143
SWIDTH 500 0
DWIDTH 12 0
BBX 12 24 0 -6
BITMAP
0000
0000
0000
6000
6000
6600
6600
6600
6600
7FE0
7FE0
0000
0000
39C0
7FE0
6660
6660
6660
6660
7FE0
39C0
0000
0000
0000
ENDCHAR

STARTCHAR C784=0x310
ENCODING 144
SWIDTH 500 0
DWIDTH 12 0
BBX 12 24 0 -6
BITMAP
0000
0000
0000
0F00
3FC0
30C0
6660
6660
30C0
3FC0
0F00
0000
0000
3FC0
7FE0
6660
6660
6660
6660
7C60
3860
0000
0000
0000
ENDCHAR

STARTCHAR C785=0x311
ENCODING 145
SWIDTH 500 0
DWIDTH 12 0
BBX 12 24 0 -6
BITMAP
0000
0000
0000
0000
0060
7FE0
7FE0
3860
1C00
0E00
0600
0000
0000
3FC0
7FE0
6660
6660
6660
6660
7C60
3860
0000
0000
0000
ENDCHAR

STARTCHAR C786=0x312
ENCODING 146
SWIDTH 500 0
DWIDTH 12 0
BBX 12 24 0 -6
BITMAP
0000
0000
0000
3C60
7E60
6660
6660
6660
6760
33E0
31E0
0000
0000
3FC0
7FE0
6660
6660
6660
6660
7C60
3860
0000
0000
0000
ENDCHAR

STARTCHAR C787=0x313
ENCODING 147
SWIDTH 500 0
DWIDTH 12 0
BBX 12 24 0 -6
BITMAP
0000
0000
0000
39C0
7FE0
6660
6660
6660
6060
30C0
30C0
0000
0000
3FC0
7FE0
6660
6660
6660
6660
7C60
3860
0000
0000
0000
ENDCHAR

STARTCHAR C788=0x314
ENCODING 148
SWIDTH 500 0
DWIDTH 12 0
BBX 12 24 0 -6
BITMAP
0000
0000
0000
0300
0FE0
4FE0
6300
7300
3B00
1F00
0F00
0000
0000
3FC0
7FE0
6660
6660
6660
6660
7C60
3860
0000
0000
0000
ENDCHAR

STARTCHAR C789=0x315
ENCODING 149
SWIDTH 500 0
DWIDTH 12 0
BBX 12 24 0 -6
BITMAP
0000
0000
0000
03C0
67E0
6660
6660
6660
6660
7E60
7E60
0000
0000
3FC0
7FE0
6660
6660
6660
6660
7C60
3860
0000
0000
0000
ENDCHAR

STARTCHAR C790=0x316
ENCODING 150
SWIDTH 500 0
DWIDTH 12 0
BBX 12 24 0 -6
BITMAP
0000
0000
0000
01C0
67E0
6660
6660
6660
6660
3FC0
3FC0
0000
0000
3FC0
7FE0
6660
6660
6660
6660
7C60
3860
0000
0000
0000
ENDCHAR

STARTCHAR C791=0x317
ENCODING 151
SWIDTH 500 0
DWIDTH 12 0
BBX 12 24 0 -6
BITMAP
0000
0000
0000
7800
7C00
6E00
6700
6380
61C0
60E0
6060
0000
0000
3FC0
7FE0
6660
6660
6660
6660
7C60
3860
0000
0000
0000
ENDCHAR

STARTCHAR C792=0x318
ENCODING 152
SWIDTH 500 0
DWIDTH 12 0
BBX 12 24 0 -6
BITMAP
0000
0000
0000
39C0
7FE0
6660
6660
6660
6660
7FE0
39C0
0000
0000
3FC0
7FE0
6660
6660
6660
6660
7C60
3860
0000
0000
0000
ENDCHAR

STARTCHAR C793=0x319
ENCODING 153
SWIDTH 500 0
DWIDTH 12 0
BBX 12 24 0 -6
BITMAP
0000
0000
0000
3FC0
7FE0
6660
6660
6660
6660
7C60
3860
0000
0000
3FC0
7FE0
6660
6660
6660
6660
7C60
3860
0000
0000
0000
ENDCHAR

STARTCHAR C794=0x31a
ENCODING 154
SWIDTH 500 0
DWIDTH 12 0
BBX 12 24 0 -6
BITMAP
0000
0000
0000
3FE0
7FE0
6600
6600
6600
6600
7FE0
3FE0
0000
0000
3FC0
7FE0
6660
6660
6660
6660
7C60
3860
0000
0000
0000
ENDCHAR

STARTCHAR C795=0x31b
ENCODING 155
SWIDTH 500 0
DWIDTH 12 0
BBX 12 24 0 -6
BITMAP
0000
0000
0000
1980
7FE0
6660
6660
6660
6660
7FE0
7FE0
0000
0000
3FC0
7FE0
6660
6660
6660
6660
7C60
3860
0000
0000
0000
ENDCHAR

STARTCHAR C796=0x31c
ENCODING 156
SWIDTH 500 0
DWIDTH 12 0
BBX 12 24 0 -6
BITMAP
0000
0000
0000
30C0
30C0
6060
6060
6060
30C0
3FC0
0F00
0000
0000
3FC0
7FE0
6660
6660
6660
6660
7C60
3860
0000
0000
0000
ENDCHAR

STARTCHAR C797=0x31d
ENCODING 157
SWIDTH 500 0
DWIDTH 12 0
BBX 12 24 0 -6
BITMAP
0000
0000
0000
0F00
3FC0
30C0
6060
6060
6060
7FE0
7FE0
0000
0000
3FC0
7FE0
6660
6660
6660
6660
7C60
3860
0000
0000
0000
ENDCHAR

STARTCHAR C798=0x31e
ENCODING 158
SWIDTH 500 0
DWIDTH 12 0
BBX 12 24 0 -6
BITMAP
0000
0000
0000
6060
6060
6660
6660
6660
6660
7FE0
7FE0
0000
0000
3FC0
7FE0
6660
6660
6660
6660
7C60
3860
0000
0000
0000
ENDCHAR

STARTCHAR C799=0x31f
ENCODING 159
SWIDTH 500 0
DWIDTH 12 0
BBX 12 24 0 -6
BITMAP
0000
0000
0000
6000
6000
6600
6600
6600
6600
7FE0
7FE0
0000
0000
3FC0
7FE0
6660
6660
6660
6660
7C60
3860
0000
0000
0000
ENDCHAR

STARTCHAR C032=0x020
ENCODING 160
SWIDTH 500 0
DWIDTH 12 0
BBX 12 24 0 -6
BITMAP
0000
0000
0000
0000
0000
0000
0000
0000
0000
0000
0000
0000
0000
0000
0000
0000
0000
0000
0000
0000
0000
0000
0000
0000
ENDCHAR

STARTCHAR C559=0x22f
ENCODING 161
SWIDTH 500 0
DWIDTH 12 0
BBX 12 24 0 -6
BITMAP
30C0
30C0
0000
7FE0
7FE0
6000
6000
6000
6000
7F80
7F80
6000
6000
6000
6000
7FE0
7FE0
0000
0000
0000
0000
0000
0000
0000
ENDCHAR

STARTCHAR C704=0x2c0
ENCODING 162
SWIDTH 500 0
DWIDTH 12 0
BBX 12 24 0 -6
BITMAP
0000
0000
7FC0
7FC0
0C00
0C00
0C00
0D80
0FC0
0EE0
0C60
0C60
0C60
0C60
0C60
0CE0
0CC0
0000
0000
0000
0000
0000
0000
0000
ENDCHAR

STARTCHAR C705=0x2c1
ENCODING 163
SWIDTH 500 0
DWIDTH 12 0
BBX 12 24 0 -6
BITMAP
0180
0300
0600
7FE0
7FE0
6060
6000
6000
6000
6000
6000
6000
6000
6000
6000
6000
6000
0000
0000
0000
0000
0000
0000
0000
ENDCHAR

STARTCHAR C706=0x2c2
ENCODING 164
SWIDTH 500 0
DWIDTH 12 0
BBX 12 24 0 -6
BITMAP
0000
0000
0F80
1FC0
38E0
7000
6000
6000
7F00
7F00
6000
6000
6000
7000
38E0
1FC0
0F80
0000
0000
0000
0000
0000
0000
0000
ENDCHAR

STARTCHAR C083=0x053
ENCODING 165
SWIDTH 500 0
DWIDTH 12 0
BBX 12 24 0 -6
BITMAP
0000
0000
1F80
3FC0
70E0
6060
6000
7000
7F80
1FC0
00E0
0060
0060
6060
70E0
3FC0
1F80
0000
0000
0000
0000
0000
0000
0000
ENDCHAR

STARTCHAR C073=0x049
ENCODING 166
SWIDTH 500 0
DWIDTH 12 0
BBX 12 24 0 -6
BITMAP
0000
0000
3FC0
3FC0
0600
0600
0600
0600
0600
0600
0600
0600
0600
0600
0600
3FC0
3FC0
0000
0000
0000
0000
0000
0000
0000
ENDCHAR

STARTCHAR C563=0x233
ENCODING 167
SWIDTH 500 0
DWIDTH 12 0
BBX 12 24 0 -6
BITMAP
30C0
30C0
0000
3FC0
3FC0
0600
0600
0600
0600
0600
0600
0600
0600
0600
0600
3FC0
3FC0
0000
0000
0000
0000
0000
0000
0000
ENDCHAR

STARTCHAR C074=0x04a
ENCODING 168
SWIDTH 500 0
DWIDTH 12 0
BBX 12 24 0 -6
BITMAP
0000
0000
0060
0060
0060
0060
0060
0060
0060
0060
0060
0060
0060
6060
60E0
3FC0
1F80
0000
0000
0000
0000
0000
0000
0000
ENDCHAR

STARTCHAR C707=0x2c3
ENCODING 169
SWIDTH 500 0
DWIDTH 12 0
BBX 12 24 0 -6
BITMAP
0000
0000
3E00
3E00
3600
3600
3600
36C0
37E0
3760
3660
3660
3660
3660
3760
77E0
76C0
0000
0000
0000
0000
0000
0000
0000
ENDCHAR

STARTCHAR C708=0x2c4
ENCODING 170
SWIDTH 500 0
DWIDTH 12 0
BBX 12 24 0 -6
BITMAP
0000
0000
6600
6600
6600
6600
6600
7FC0
7FE0
66E0
6660
6660
6660
6660
6760
67E0
66C0
0000
0000
0000
0000
0000
0000
0000
ENDCHAR

STARTCHAR C709=0x2c5
ENCODING 171
SWIDTH 500 0
DWIDTH 12 0
BBX 12 24 0 -6
BITMAP
0000
0000
7F80
7F80
1800
1800
1800
1BC0
1FE0
1C60
1860
1860
1860
1860
1860
1860
1860
0000
0000
0000
0000
0000
0000
0000
ENDCHAR

STARTCHAR C710=0x2c6
ENCODING 172
SWIDTH 500 0
DWIDTH 12 0
BBX 12 24 0 -6
BITMAP
0180
0300
6660
60E0
60C0
6180
6180
6300
6700
7E00
7E00
6700
6300
6180
6180
60E0
60E0
0000
0000
0000
0000
0000
0000
0000
ENDCHAR

STARTCHAR C045=0x02d
ENCODING 173
SWIDTH 500 0
DWIDTH 12 0
BBX 12 24 0 -6
BITMAP
0000
0000
0000
0000
0000
0000
0000
0000
0000
0000
3FC0
3FC0
0000
0000
0000
0000
0000
0000
0000
0000
0000
0000
0000
0000
ENDCHAR

STARTCHAR C764=0x2fc
ENCODING 174
SWIDTH 500 0
DWIDTH 12 0
BBX 12 24 0 -6
BITMAP
1080
1980
6F60
6060
6060
6060
6060
30C0
30C0
1980
1980
0F00
0F00
0600
6E00
7C00
3800
0000
0000
0000
0000
0000
0000
0000
ENDCHAR

STARTCHAR C711=0x2c7
ENCODING 175
SWIDTH 500 0
DWIDTH 12 0
BBX 12 24 0 -6
BITMAP
0000
0000
6060
6060
6060
6060
6060
6060
6060
6060
6060
6060
6060
6060
6060
7FE0
7FE0
0600
0600
0600
0000
0000
0000
0000
ENDCHAR

STARTCHAR C065=0x041
ENCODING 176
SWIDTH 500 0
DWIDTH 12 0
BBX 12 24 0 -6
BITMAP
0000
0000
0600
0F00
1F80
39C0
70E0
6060
6060
6060
7FE0
7FE0
6060
6060
6060
6060
6060
0000
0000
0000
0000
0000
0000
0000
ENDCHAR

STARTCHAR C712=0x2c8
ENCODING 177
SWIDTH 500 0
DWIDTH 12 0
BBX 12 24 0 -6
BITMAP
0000
0000
7FE0
7FE0
6060
6000
6000
6000
6000
7F80
7FC0
60E0
6060
6060
60E0
7FC0
7F80
0000
0000
0000
0000
0000
0000
0000
ENDCHAR

STARTCHAR C066=0x042
ENCODING 178
SWIDTH 500 0
DWIDTH 12 0
BBX 12 24 0 -6
BITMAP
0000
0000
7F80
7FC0
60E0
6060
6060
60E0
7FC0
7FC0
60E0
6060
6060
6060
60E0
7FC0
7F80
0000
0000
0000
0000
0000
0000
0000
ENDCHAR

STARTCHAR C766=0x2fe
ENCODING 179
SWIDTH 500 0
DWIDTH 12 0
BBX 12 24 0 -6
BITMAP
0000
0000
7FE0
7FE0
6060
6000
6000
6000
6000
6000
6000
6000
6000
6000
6000
6000
6000
0000
0000
0000
0000
0000
0000
0000
ENDCHAR

STARTCHAR C713=0x2c9
ENCODING 180
SWIDTH 500 0
DWIDTH 12 0
BBX 12 24 0 -6
BITMAP
0000
0000
0FE0
0FE0
0CC0
0CC0
0CC0
0CC0
0CC0
0CC0
18C0
18C0
18C0
30C0
30C0
7FE0
7FE0
6060
6060
6060
0000
0000
0000
0000
ENDCHAR

STARTCHAR C069=0x045
ENCODING 181
SWIDTH 500 0
DWIDTH 12 0
BBX 12 24 0 -6
BITMAP
0000
0000
7FE0
7FE0
6000
6000
6000
6000
7F80
7F80
6000
6000
6000
6000
6000
7FE0
7FE0
0000
0000
0000
0000
0000
0000
0000
ENDCHAR

STARTCHAR C714=0x2ca
ENCODING 182
SWIDTH 500 0
DWIDTH 12 0
BBX 12 24 0 -6
BITMAP
0000
0000
6060
6660
2640
36C0
36C0
1680
1F80
1F80
1F80
1680
36C0
36C0
2640
6660
6660
0000
0000
0000
0000
0000
0000
0000
ENDCHAR

STARTCHAR C715=0x2cb
ENCODING 183
SWIDTH 500 0
DWIDTH 12 0
BBX 12 24 0 -6
BITMAP
0000
0000
1F80
3FC0
70E0
6060
0060
00E0
0FE0
0FC0
00E0
0060
0060
6060
70E0
3FC0
1F80
0000
0000
0000
0000
0000
0000
0000
ENDCHAR

STARTCHAR C716=0x2cc
ENCODING 184
SWIDTH 500 0
DWIDTH 12 0
BBX 12 24 0 -6
BITMAP
0000
0000
6060
60E0
60E0
61E0
61E0
6360
6360
6660
6660
6C60
6C60
7860
7860
7060
6060
0000
0000
0000
0000
0000
0000
0000
ENDCHAR

STARTCHAR C717=0x2cd
ENCODING 185
SWIDTH 500 0
DWIDTH 12 0
BBX 12 24 0 -6
BITMAP
1080
1980
6F60
60E0
60E0
61E0
61E0
6360
6360
6660
6660
6C60
6C60
7860
7860
7060
6060
0000
0000
0000
0000
0000
0000
0000
ENDCHAR

STARTCHAR C625=0x271
ENCODING 186
SWIDTH 500 0
DWIDTH 12 0
BBX 12 24 0 -6
BITMAP
0000
0000
6060
60E0
61C0
6180
6300
6300
6700
7E00
7E00
6700
6300
6180
6180
60E0
60E0
0000
0000
0000
0000
0000
0000
0000
ENDCHAR

STARTCHAR C718=0x2ce
ENCODING 187
SWIDTH 500 0
DWIDTH 12 0
BBX 12 24 0 -6
BITMAP
0000
0000
07E0
0FE0
1C60
1860
1860
1860
1860
1860
1860
1860
1860
1860
3860
7060
6060
0000
0000
0000
0000
0000
0000
0000
ENDCHAR

STARTCHAR C077=0x04d
ENCODING 188
SWIDTH 500 0
DWIDTH 12 0
BBX 12 24 0 -6
BITMAP
0000
0000
6060
70E0
70E0
79E0
79E0
7FE0
6F60
6F60
6660
6660
6060
6060
6060
6060
6060
0000
0000
0000
0000
0000
0000
0000
ENDCHAR

STARTCHAR C072=0x048
ENCODING 189
SWIDTH 500 0
DWIDTH 12 0
BBX 12 24 0 -6
BITMAP
0000
0000
6060
6060
6060
6060
6060
6060
7FE0
7FE0
6060
6060
6060
6060
6060
6060
6060
0000
0000
0000
0000
0000
0000
0000
ENDCHAR

STARTCHAR C079=0x04f
ENCODING 190
SWIDTH 500 0
DWIDTH 12 0
BBX 12 24 0 -6
BITMAP
0000
0000
0F00
3FC0
70E0
6060
6060
6060
6060
6060
6060
6060
6060
6060
70E0
3FC0
0F00
0000
0000
0000
0000
0000
0000
0000
ENDCHAR

STARTCHAR C719=0x2cf
ENCODING 191
SWIDTH 500 0
DWIDTH 12 0
BBX 12 24 0 -6
BITMAP
0000
0000
7FE0
7FE0
6060
6060
6060
6060
6060
6060
6060
6060
6060
6060
6060
6060
0000
0000
0000
0000
0000
0000
0000
0000
ENDCHAR

STARTCHAR C080=0x050
ENCODING 192
SWIDTH 500 0
DWIDTH 12 0
BBX 12 24 0 -6
BITMAP
0000
0000
7F80
7FC0
60E0
6060
6060
6060
60E0
7FC0
7F80
6000
6000
6000
6000
6000
6000
0000
0000
0000
0000
0000
0000
0000
ENDCHAR

STARTCHAR C067=0x043
ENCODING 193
SWIDTH 500 0
DWIDTH 12 0
BBX 12 24 0 -6
BITMAP
0000
0000
1F80
3FC0
70E0
6060
6000
6000
6000
6000
6000
6000
6000
6060
70E0
3FC0
1F80
0000
0000
0000
0000
0000
0000
0000
ENDCHAR

STARTCHAR C084=0x054
ENCODING 194
SWIDTH 500 0
DWIDTH 12 0
BBX 12 24 0 -6
BITMAP
0000
0000
7FE0
7FE0
0600
0600
0600
0600
0600
0600
0600
0600
0600
0600
0600
0600
0600
0000
0000
0000
0000
0000
0000
0000
ENDCHAR

STARTCHAR C767=0x2ff
ENCODING 195
SWIDTH 500 0
DWIDTH 12 0
BBX 12 24 0 -6
BITMAP
0000
0000
6060
6060
6060
6060
6060
70C0
30C0
1980
1980
0F00
0F00
0600
6E00
7C00
3800
0000
0000
0000
0000
0000
0000
0000
ENDCHAR

STARTCHAR C720=0x2d0
ENCODING 196
SWIDTH 500 0
DWIDTH 12 0
BBX 12 24 0 -6
BITMAP
0000
0000
0600
0600
1F80
3FC0
76E0
6660
6660
6660
6660
6660
76E0
3FC0
1F80
0600
0600
0000
0000
0000
0000
0000
0000
0000
ENDCHAR

STARTCHAR C088=0x058
ENCODING 197
SWIDTH 500 0
DWIDTH 12 0
BBX 12 24 0 -6
BITMAP
0000
0000
6060
6060
30C0
30C0
1980
1980
0F00
0F00
0F00
1980
1980
30C0
30C0
6060
6060
0000
0000
0000
0000
0000
0000
0000
ENDCHAR

STARTCHAR C721=0x2d1
ENCODING 198
SWIDTH 500 0
DWIDTH 12 0
BBX 12 24 0 -6
BITMAP
0000
0000
60C0
60C0
60C0
60C0
60C0
60C0
60C0
60C0
60C0
60C0
60C0
60C0
60C0
7FE0
7FE0
0060
0060
0060
0000
0000
0000
0000
ENDCHAR

STARTCHAR C722=0x2d2
ENCODING 199
SWIDTH 500 0
DWIDTH 12 0
BBX 12 24 0 -6
BITMAP
0000
0000
6060
6060
6060
6060
6060
6060
7060
3FE0
1FE0
0060
0060
0060
0060
0060
0060
0000
0000
0000
0000
0000
0000
0000
ENDCHAR

STARTCHAR C723=0x2d3
ENCODING 200
SWIDTH 500 0
DWIDTH 12 0
BBX 12 24 0 -6
BITMAP
0000
0000
6660
6660
6660
6660
6660
6660
6660
6660
6660
6660
6660
6660
6660
7FE0
7FE0
0000
0000
0000
0000
0000
0000
0000
ENDCHAR

STARTCHAR C724=0x2d4
ENCODING 201
SWIDTH 500 0
DWIDTH 12 0
BBX 12 24 0 -6
BITMAP
0000
0000
6660
6660
6660
6660
6660
6660
6660
6660
6660
6660
6660
6660
6660
7FF0
7FF0
0030
0030
0030
0000
0000
0000
0000
ENDCHAR

STARTCHAR C725=0x2d5
ENCODING 202
SWIDTH 500 0
DWIDTH 12 0
BBX 12 24 0 -6
BITMAP
0000
0000
7800
7800
1800
1800
1800
1800
1F80
1FC0
18E0
1860
1860
1860
18E0
1FC0
1F80
0000
0000
0000
0000
0000
0000
0000
ENDCHAR

STARTCHAR C726=0x2d6
ENCODING 203
SWIDTH 500 0
DWIDTH 12 0
BBX 12 24 0 -6
BITMAP
0000
0000
6060
6060
6060
6060
6060
6060
7C60
7E60
6760
6360
6360
6360
6760
7E60
7C60
0000
0000
0000
0000
0000
0000
0000
ENDCHAR

STARTCHAR C727=0x2d7
ENCODING 204
SWIDTH 500 0
DWIDTH 12 0
BBX 12 24 0 -6
BITMAP
0000
0000
6000
6000
6000
6000
6000
6000
7F80
7FC0
60E0
6060
6060
6060
60E0
7FC0
7F80
0000
0000
0000
0000
0000
0000
0000
ENDCHAR

STARTCHAR C728=0x2d8
ENCODING 205
SWIDTH 500 0
DWIDTH 12 0
BBX 12 24 0 -6
BITMAP
0000
0000
3F80
7FC0
60C0
0060
0060
0060
1FE0
1FE0
0060
0060
0060
0060
60C0
7FC0
3F80
0000
0000
0000
0000
0000
0000
0000
ENDCHAR

STARTCHAR C729=0x2d9
ENCODING 206
SWIDTH 500 0
DWIDTH 12 0
BBX 12 24 0 -6
BITMAP
0000
0000
6380
67C0
6EE0
6C60
6C60
6C60
7C60
7C60
6C60
6C60
6C60
6C60
6EE0
67C0
6380
0000
0000
0000
0000
0000
0000
0000
ENDCHAR

STARTCHAR C730=0x2da
ENCODING 207
SWIDTH 500 0
DWIDTH 12 0
BBX 12 24 0 -6
BITMAP
0000
0000
1FE0
3FE0
7060
6060
6060
6060
7060
3FE0
1FE0
0760
0E60
1C60
3860
7060
6060
0000
0000
0000
0000
0000
0000
0000
ENDCHAR

STARTCHAR C097=0x061
ENCODING 208
SWIDTH 500 0
DWIDTH 12 0
BBX 12 24 0 -6
BITMAP
0000
0000
0000
0000
0000
1F80
3FC0
70E0
0060
0060
1FE0
3FE0
7060
6060
61E0
7FE0
3F60
0000
0000
0000
0000
0000
0000
0000
ENDCHAR

STARTCHAR C731=0x2db
ENCODING 209
SWIDTH 500 0
DWIDTH 12 0
BBX 12 24 0 -6
BITMAP
0000
0000
00E0
1FC0
3F00
7000
6000
6F80
7FC0
70E0
6060
6060
6060
6060
70C0
3FC0
0F00
0000
0000
0000
0000
0000
0000
0000
ENDCHAR

STARTCHAR C732=0x2dc
ENCODING 210
SWIDTH 500 0
DWIDTH 12 0
BBX 12 24 0 -6
BITMAP
0000
0000
0000
0000
0000
7F80
7FC0
60E0
6060
60E0
7FC0
7FC0
60E0
6060
60E0
7FC0
7F80
0000
0000
0000
0000
0000
0000
0000
ENDCHAR

STARTCHAR C733=0x2dd
ENCODING 211
SWIDTH 500 0
DWIDTH 12 0
BBX 12 24 0 -6
BITMAP
0000
0000
0000
0000
0000
7FE0
7FE0
6060
6000
6000
6000
6000
6000
6000
6000
6000
6000
0000
0000
0000
0000
0000
0000
0000
ENDCHAR

STARTCHAR C734=0x2de
ENCODING 212
SWIDTH 500 0
DWIDTH 12 0
BBX 12 24 0 -6
BITMAP
0000
0000
0000
0000
0000
0FC0
0FC0
0CC0
0CC0
0CC0
0CC0
1CC0
18C0
30C0
30C0
7FE0
7FE0
6060
6060
0000
0000
0000
0000
0000
ENDCHAR

STARTCHAR C101=0x065
ENCODING 213
SWIDTH 500 0
DWIDTH 12 0
BBX 12 24 0 -6
BITMAP
0000
0000
0000
0000
0000
1F00
3FC0
30C0
6060
6060
7FE0
7FE0
6000
6000
70E0
3FC0
1F80
0000
0000
0000
0000
0000
0000
0000
ENDCHAR

STARTCHAR C735=0x2df
ENCODING 214
SWIDTH 500 0
DWIDTH 12 0
BBX 12 24 0 -6
BITMAP
0000
0000
0000
0000
0000
6660
6660
6660
36C0
1F80
0F00
1F80
36C0
6660
6660
6660
6660
0000
0000
0000
0000
0000
0000
0000
ENDCHAR

STARTCHAR C736=0x2e0
ENCODING 215
SWIDTH 500 0
DWIDTH 12 0
BBX 12 24 0 -6
BITMAP
0000
0000
0000
0000
0000
1F80
3FC0
60E0
4060
0060
07C0
07C0
0060
4060
6060
3FC0
1F80
0000
0000
0000
0000
0000
0000
0000
ENDCHAR

STARTCHAR C737=0x2e1
ENCODING 216
SWIDTH 500 0
DWIDTH 12 0
BBX 12 24 0 -6
BITMAP
0000
0000
0000
0000
0000
6060
6060
60E0
61E0
63E0
6760
6E60
7C60
7860
7060
6060
6060
0000
0000
0000
0000
0000
0000
0000
ENDCHAR

STARTCHAR C738=0x2e2
ENCODING 217
SWIDTH 500 0
DWIDTH 12 0
BBX 12 24 0 -6
BITMAP
0000
0000
1080
1F80
0F00
6060
6060
60E0
61E0
63E0
6760
6E60
7C60
7860
7060
6060
6060
0000
0000
0000
0000
0000
0000
0000
ENDCHAR

STARTCHAR C739=0x2e3
ENCODING 218
SWIDTH 500 0
DWIDTH 12 0
BBX 12 24 0 -6
BITMAP
0000
0000
0000
0000
0000
61C0
63C0
6300
6600
6600
7C00
7C00
6600
6600
6300
63C0
61C0
0000
0000
0000
0000
0000
0000
0000
ENDCHAR

STARTCHAR C740=0x2e4
ENCODING 219
SWIDTH 500 0
DWIDTH 12 0
BBX 12 24 0 -6
BITMAP
0000
0000
0000
0000
0000
07E0
0FE0
1C60
1860
1860
1860
1860
1860
1860
3860
7060
6060
0000
0000
0000
0000
0000
0000
0000
ENDCHAR

STARTCHAR C741=0x2e5
ENCODING 220
SWIDTH 500 0
DWIDTH 12 0
BBX 12 24 0 -6
BITMAP
0000
0000
0000
0000
0000
6060
6060
70E0
79E0
7FE0
6F60
6660
6060
6060
6060
6060
6060
0000
0000
0000
0000
0000
0000
0000
ENDCHAR

STARTCHAR C742=0x2e6
ENCODING 221
SWIDTH 500 0
DWIDTH 12 0
BBX 12 24 0 -6
BITMAP
0000
0000
0000
0000
0000
6060
6060
6060
6060
6060
7FE0
7FE0
6060
6060
6060
6060
6060
0000
0000
0000
0000
0000
0000
0000
ENDCHAR

STARTCHAR C111=0x06f
ENCODING 222
SWIDTH 500 0
DWIDTH 12 0
BBX 12 24 0 -6
BITMAP
0000
0000
0000
0000
0000
0F00
3FC0
30C0
6060
6060
6060
6060
6060
6060
70C0
3FC0
0F00
0000
0000
0000
0000
0000
0000
0000
ENDCHAR

STARTCHAR C743=0x2e7
ENCODING 223
SWIDTH 500 0
DWIDTH 12 0
BBX 12 24 0 -6
BITMAP
0000
0000
0000
0000
0000
7FE0
7FE0
6060
6060
6060
6060
6060
6060
6060
6060
6060
6060
0000
0000
0000
0000
0000
0000
0000
ENDCHAR

STARTCHAR C112=0x070
ENCODING 224
SWIDTH 500 0
DWIDTH 12 0
BBX 12 24 0 -6
BITMAP
0000
0000
0000
0000
0000
6700
7FC0
78C0
6060
6060
6060
6060
6060
6060
78E0
7FC0
6700
6000
6000
6000
6000
0000
0000
0000
ENDCHAR

STARTCHAR C099=0x063
ENCODING 225
SWIDTH 500 0
DWIDTH 12 0
BBX 12 24 0 -6
BITMAP
0000
0000
0000
0000
0000
0FC0
3FE0
3060
6000
6000
6000
6000
6000
6000
7060
3FE0
0FC0
0000
0000
0000
0000
0000
0000
0000
ENDCHAR

STARTCHAR C744=0x2e8
ENCODING 226
SWIDTH 500 0
DWIDTH 12 0
BBX 12 24 0 -6
BITMAP
0000
0000
0000
0000
0000
7FE0
7FE0
0600
0600
0600
0600
0600
0600
0600
0600
0600
0600
0000
0000
0000
0000
0000
0000
0000
ENDCHAR

STARTCHAR C697=0x2b9
ENCODING 227
SWIDTH 500 0
DWIDTH 12 0
BBX 12 24 0 -6
BITMAP
0000
0000
0000
0000
0000
6060
6060
6060
6060
70C0
30C0
1980
1980
0F00
0F00
0600
0600
6E00
7C00
3800
0000
0000
0000
0000
ENDCHAR

STARTCHAR C745=0x2e9
ENCODING 228
SWIDTH 500 0
DWIDTH 12 0
BBX 12 24 0 -6
BITMAP
0000
0000
0000
0600
0600
0600
1F80
3FC0
36C0
6660
6660
6660
6660
6660
36C0
3FC0
1F80
0600
0600
0600
0000
0000
0000
0000
ENDCHAR

STARTCHAR C120=0x078
ENCODING 229
SWIDTH 500 0
DWIDTH 12 0
BBX 12 24 0 -6
BITMAP
0000
0000
0000
0000
0000
6060
70E0
30C0
39C0
1F80
0F00
0F00
1F80
39C0
30C0
70E0
6060
0000
0000
0000
0000
0000
0000
0000
ENDCHAR

STARTCHAR C746=0x2ea
ENCODING 230
SWIDTH 500 0
DWIDTH 12 0
BBX 12 24 0 -6
BITMAP
0000
0000
0000
0000
0000
6180
6180
6180
6180
6180
6180
6180
6180
6180
6180
7FE0
7FE0
0060
0060
0060
0000
0000
0000
0000
ENDCHAR

STARTCHAR C747=0x2eb
ENCODING 231
SWIDTH 500 0
DWIDTH 12 0
BBX 12 24 0 -6
BITMAP
0000
0000
0000
0000
0000
6060
6060
6060
6060
70E0
3FE0
1F60
0060
0060
0060
0060
0060
0000
0000
0000
0000
0000
0000
0000
ENDCHAR

STARTCHAR C748=0x2ec
ENCODING 232
SWIDTH 500 0
DWIDTH 12 0
BBX 12 24 0 -6
BITMAP
0000
0000
0000
0000
0000
6660
6660
6660
6660
6660
6660
6660
6660
6660
6660
7FE0
7FE0
0000
0000
0000
0000
0000
0000
0000
ENDCHAR

STARTCHAR C749=0x2ed
ENCODING 233
SWIDTH 500 0
DWIDTH 12 0
BBX 12 24 0 -6
BITMAP
0000
0000
0000
0000
0000
6660
6660
6660
6660
6660
6660
6660
6660
6660
6660
7FF0
7FF0
0030
0030
0020
0000
0000
0000
0000
ENDCHAR

STARTCHAR C750=0x2ee
ENCODING 234
SWIDTH 500 0
DWIDTH 12 0
BBX 12 24 0 -6
BITMAP
0000
0000
0000
0000
0000
7800
7800
1800
1B80
1FC0
1CE0
1860
1860
1860
1CE0
1FC0
1B80
0000
0000
0000
0000
0000
0000
0000
ENDCHAR

STARTCHAR C751=0x2ef
ENCODING 235
SWIDTH 500 0
DWIDTH 12 0
BBX 12 24 0 -6
BITMAP
0000
0000
0000
0000
0000
6060
6060
6060
6C60
7E60
7760
6360
6360
6360
7760
7E60
6C40
0000
0000
0000
0000
0000
0000
0000
ENDCHAR

STARTCHAR C752=0x2f0
ENCODING 236
SWIDTH 500 0
DWIDTH 12 0
BBX 12 24 0 -6
BITMAP
0000
0000
0000
0000
0000
6000
6000
6000
6F00
7F80
71C0
60C0
60C0
60C0
71C0
7F80
6F00
0000
0000
0000
0000
0000
0000
0000
ENDCHAR

STARTCHAR C753=0x2f1
ENCODING 237
SWIDTH 500 0
DWIDTH 12 0
BBX 12 24 0 -6
BITMAP
0000
0000
0000
0000
0000
1F80
3FC0
60E0
0060
0060
07E0
07E0
0060
0060
60E0
3FC0
1F80
0000
0000
0000
0000
0000
0000
0000
ENDCHAR

STARTCHAR C754=0x2f2
ENCODING 238
SWIDTH 500 0
DWIDTH 12 0
BBX 12 24 0 -6
BITMAP
0000
0000
0000
0000
0000
6380
67C0
66C0
6C60
6C60
6C60
7C60
7C60
6C60
6EE0
67C0
6380
0000
0000
0000
0000
0000
0000
0000
ENDCHAR

STARTCHAR C755=0x2f3
ENCODING 239
SWIDTH 500 0
DWIDTH 12 0
BBX 12 24 0 -6
BITMAP
0000
0000
0000
0000
0000
1FE0
3FE0
7060
6060
7060
3FE0
1FE0
0760
0E60
1C60
3860
7060
0000
0000
0000
0000
0000
0000
0000
ENDCHAR

STARTCHAR C756=0x2f4
ENCODING 240
SWIDTH 500 0
DWIDTH 12 0
BBX 12 24 0 -6
BITMAP
0000
0000
0000
6370
6350
7350
7370
7300
7B00
7B00
6B00
6F00
6F00
6700
6700
6700
6300
0000
0000
0000
0000
0000
0000
0000
ENDCHAR

STARTCHAR C179=0x0b3
ENCODING 241
SWIDTH 500 0
DWIDTH 12 0
BBX 12 24 0 -6
BITMAP
0000
0000
30C0
30C0
0000
1F00
3FC0
30C0
6060
6060
7FE0
7FE0
6000
6000
70E0
3FC0
0F80
0000
0000
0000
0000
0000
0000
0000
ENDCHAR

STARTCHAR C757=0x2f5
ENCODING 242
SWIDTH 500 0
DWIDTH 12 0
BBX 12 24 0 -6
BITMAP
0000
0000
0000
3000
3000
7F00
7F00
3000
3380
37C0
3CE0
3860
3060
3060
3060
3060
3060
00E0
0FC0
0780
0000
0000
0000
0000
ENDCHAR

STARTCHAR C668=0x29c
ENCODING 243
SWIDTH 500 0
DWIDTH 12 0
BBX 12 24 0 -6
BITMAP
0000
0000
0300
0600
0000
7FE0
7FE0
6060
6000
6000
6000
6000
6000
6000
6000
6000
0000
0000
0000
0000
0000
0000
0000
0000
ENDCHAR

STARTCHAR C758=0x2f6
ENCODING 244
SWIDTH 500 0
DWIDTH 12 0
BBX 12 24 0 -6
BITMAP
0000
0000
0000
0000
0000
1F80
3FC0
70E0
6000
6000
7F00
7F00
6000
6000
70E0
3FC0
1F80
0000
0000
0000
0000
0000
0000
0000
ENDCHAR

STARTCHAR C115=0x073
ENCODING 245
SWIDTH 500 0
DWIDTH 12 0
BBX 12 24 0 -6
BITMAP
0000
0000
0000
0000
0000
1FC0
3FE0
7060
6000
7000
3F80
1FC0
00E0
0060
60E0
7FC0
3F80
0000
0000
0000
0000
0000
0000
0000
ENDCHAR

STARTCHAR C105=0x069
ENCODING 246
SWIDTH 500 0
DWIDTH 12 0
BBX 12 24 0 -6
BITMAP
0000
0000
0600
0600
0000
1E00
1E00
0600
0600
0600
0600
0600
0600
0600
0600
3FC0
3FC0
0000
0000
0000
0000
0000
0000
0000
ENDCHAR

STARTCHAR C187=0x0bb
ENCODING 247
SWIDTH 500 0
DWIDTH 12 0
BBX 12 24 0 -6
BITMAP
0000
0000
1980
1980
0000
1E00
1E00
0600
0600
0600
0600
0600
0600
0600
0600
3FC0
3FC0
0000
0000
0000
0000
0000
0000
0000
ENDCHAR

STARTCHAR C106=0x06a
ENCODING 248
SWIDTH 500 0
DWIDTH 12 0
BBX 12 24 0 -6
BITMAP
0000
0000
0300
0300
0000
0F00
0F00
0300
0300
0300
0300
0300
0300
0300
0300
0300
0300
3300
3F00
1E00
0000
0000
0000
0000
ENDCHAR

STARTCHAR C759=0x2f7
ENCODING 249
SWIDTH 500 0
DWIDTH 12 0
BBX 12 24 0 -6
BITMAP
0000
0000
0000
0000
0000
3E00
3E00
3600
3600
3600
37C0
37E0
3660
3660
3660
77E0
67C0
0000
0000
0000
0000
0000
0000
0000
ENDCHAR

STARTCHAR C760=0x2f8
ENCODING 250
SWIDTH 500 0
DWIDTH 12 0
BBX 12 24 0 -6
BITMAP
0000
0000
0000
0000
0000
6600
6600
6600
6600
6600
7FC0
7FE0
6660
6660
6660
67E0
67C0
0000
0000
0000
0000
0000
0000
0000
ENDCHAR

STARTCHAR C761=0x2f9
ENCODING 251
SWIDTH 500 0
DWIDTH 12 0
BBX 12 24 0 -6
BITMAP
0000
0000
0000
3000
3000
7F00
7F00
3000
3000
3780
3FC0
3CE0
3860
3060
3060
3060
3060
0000
0000
0000
0000
0000
0000
0000
ENDCHAR

STARTCHAR C762=0x2fa
ENCODING 252
SWIDTH 500 0
DWIDTH 12 0
BBX 12 24 0 -6
BITMAP
0000
0180
0300
0600
0000
61E0
63E0
6300
6600
6600
7C00
7C00
6600
6600
6300
63E0
61E0
0000
0000
0000
0000
0000
0000
0000
ENDCHAR

STARTCHAR C236=0x0ec
ENCODING 253
SWIDTH 500 0
DWIDTH 12 0
BBX 12 24 0 -6
BITMAP
0000
0000
0000
0F80
1FC0
38E0
3000
3F80
1FC0
3060
3060
1FC0
0FE0
0060
38E0
1FC0
0F80
0000
0000
0000
0000
0000
0000
0000
ENDCHAR

STARTCHAR C765=0x2fd
ENCODING 254
SWIDTH 500 0
DWIDTH 12 0
BBX 12 24 0 -6
BITMAP
0000
0000
1080
1980
0F00
6060
6060
6060
6060
70E0
30C0
1980
1980
0F00
0F00
0600
0600
6E00
7C00
3800
0000
0000
0000
0000
ENDCHAR

STARTCHAR C763=0x2fb
ENCODING 255
SWIDTH 500 0
DWIDTH 12 0
BBX 12 24 0 -6
BITMAP
0000
0000
0000
0000
0000
6060
6060
6060
6060
6060
6060
6060
6060
6060
6060
7FE0
7FE0
0600
0600
0600
0000
0000
0000
0000
ENDCHAR
ENDFONT
